<svg width="38" height="38" viewBox="0 0 38 38" fill="none" xmlns="http://www.w3.org/2000/svg">
<circle cx="19" cy="19" r="19" fill="#E63312"/>
<path d="M19 26C19.1978 26 19.3911 25.9414 19.5556 25.8315C19.72 25.7216 19.8482 25.5654 19.9239 25.3827C19.9996 25.2 20.0194 24.9989 19.9808 24.8049C19.9422 24.6109 19.847 24.4327 19.7071 24.2929C19.5673 24.153 19.3891 24.0578 19.1951 24.0192C19.0011 23.9806 18.8 24.0004 18.6173 24.0761C18.4346 24.1518 18.2784 24.28 18.1685 24.4444C18.0586 24.6089 18 24.8022 18 25C18 25.2652 18.1054 25.5196 18.2929 25.7071C18.4804 25.8946 18.7348 26 19 26ZM24 26C24.1978 26 24.3911 25.9414 24.5556 25.8315C24.72 25.7216 24.8482 25.5654 24.9239 25.3827C24.9996 25.2 25.0194 24.9989 24.9808 24.8049C24.9422 24.6109 24.847 24.4327 24.7071 24.2929C24.5673 24.153 24.3891 24.0578 24.1951 24.0192C24.0011 23.9806 23.8 24.0004 23.6173 24.0761C23.4346 24.1518 23.2784 24.28 23.1685 24.4444C23.0586 24.6089 23 24.8022 23 25C23 25.2652 23.1054 25.5196 23.2929 25.7071C23.4804 25.8946 23.7348 26 24 26ZM24 22C24.1978 22 24.3911 21.9414 24.5556 21.8315C24.72 21.7216 24.8482 21.5654 24.9239 21.3827C24.9996 21.2 25.0194 20.9989 24.9808 20.8049C24.9422 20.6109 24.847 20.4327 24.7071 20.2929C24.5673 20.153 24.3891 20.0578 24.1951 20.0192C24.0011 19.9806 23.8 20.0004 23.6173 20.0761C23.4346 20.1518 23.2784 20.28 23.1685 20.4444C23.0586 20.6089 23 20.8022 23 21C23 21.2652 23.1054 21.5196 23.2929 21.7071C23.4804 21.8946 23.7348 22 24 22ZM19 22C19.1978 22 19.3911 21.9414 19.5556 21.8315C19.72 21.7216 19.8482 21.5654 19.9239 21.3827C19.9996 21.2 20.0194 20.9989 19.9808 20.8049C19.9422 20.6109 19.847 20.4327 19.7071 20.2929C19.5673 20.153 19.3891 20.0578 19.1951 20.0192C19.0011 19.9806 18.8 20.0004 18.6173 20.0761C18.4346 20.1518 18.2784 20.28 18.1685 20.4444C18.0586 20.6089 18 20.8022 18 21C18 21.2652 18.1054 21.5196 18.2929 21.7071C18.4804 21.8946 18.7348 22 19 22ZM26 10H25V9C25 8.73478 24.8946 8.48043 24.7071 8.29289C24.5196 8.10536 24.2652 8 24 8C23.7348 8 23.4804 8.10536 23.2929 8.29289C23.1054 8.48043 23 8.73478 23 9V10H15V9C15 8.73478 14.8946 8.48043 14.7071 8.29289C14.5196 8.10536 14.2652 8 14 8C13.7348 8 13.4804 8.10536 13.2929 8.29289C13.1054 8.48043 13 8.73478 13 9V10H12C11.2044 10 10.4413 10.3161 9.87868 10.8787C9.31607 11.4413 9 12.2044 9 13V27C9 27.7956 9.31607 28.5587 9.87868 29.1213C10.4413 29.6839 11.2044 30 12 30H26C26.7956 30 27.5587 29.6839 28.1213 29.1213C28.6839 28.5587 29 27.7956 29 27V13C29 12.2044 28.6839 11.4413 28.1213 10.8787C27.5587 10.3161 26.7956 10 26 10ZM27 27C27 27.2652 26.8946 27.5196 26.7071 27.7071C26.5196 27.8946 26.2652 28 26 28H12C11.7348 28 11.4804 27.8946 11.2929 27.7071C11.1054 27.5196 11 27.2652 11 27V18H27V27ZM27 16H11V13C11 12.7348 11.1054 12.4804 11.2929 12.2929C11.4804 12.1054 11.7348 12 12 12H13V13C13 13.2652 13.1054 13.5196 13.2929 13.7071C13.4804 13.8946 13.7348 14 14 14C14.2652 14 14.5196 13.8946 14.7071 13.7071C14.8946 13.5196 15 13.2652 15 13V12H23V13C23 13.2652 23.1054 13.5196 23.2929 13.7071C23.4804 13.8946 23.7348 14 24 14C24.2652 14 24.5196 13.8946 24.7071 13.7071C24.8946 13.5196 25 13.2652 25 13V12H26C26.2652 12 26.5196 12.1054 26.7071 12.2929C26.8946 12.4804 27 12.7348 27 13V16ZM14 22C14.1978 22 14.3911 21.9414 14.5556 21.8315C14.72 21.7216 14.8482 21.5654 14.9239 21.3827C14.9996 21.2 15.0194 20.9989 14.9808 20.8049C14.9422 20.6109 14.847 20.4327 14.7071 20.2929C14.5673 20.153 14.3891 20.0578 14.1951 20.0192C14.0011 19.9806 13.8 20.0004 13.6173 20.0761C13.4346 20.1518 13.2784 20.28 13.1685 20.4444C13.0586 20.6089 13 20.8022 13 21C13 21.2652 13.1054 21.5196 13.2929 21.7071C13.4804 21.8946 13.7348 22 14 22ZM14 26C14.1978 26 14.3911 25.9414 14.5556 25.8315C14.72 25.7216 14.8482 25.5654 14.9239 25.3827C14.9996 25.2 15.0194 24.9989 14.9808 24.8049C14.9422 24.6109 14.847 24.4327 14.7071 24.2929C14.5673 24.153 14.3891 24.0578 14.1951 24.0192C14.0011 23.9806 13.8 24.0004 13.6173 24.0761C13.4346 24.1518 13.2784 24.28 13.1685 24.4444C13.0586 24.6089 13 24.8022 13 25C13 25.2652 13.1054 25.5196 13.2929 25.7071C13.4804 25.8946 13.7348 26 14 26Z" fill="white"/>
</svg>
