<svg width="102" height="80" viewBox="0 0 102 80" fill="none" xmlns="http://www.w3.org/2000/svg">
<path d="M25.2747 47.8246C29.437 55.8217 38.9773 64.0058 53.1008 64.9879C67.9725 66.0168 74.9407 57.8794 77.8403 52.6884L84.3408 55.9152L89.9995 53.7172L87.2403 46.3749C85.2761 46.4216 83.8264 46.3749 83.8264 46.3749L79.4771 43.3818C79.7109 41.5579 79.4303 39.734 78.6821 38.0972C77.5129 39.3599 75.9696 40.2017 74.2392 40.3888C68.3934 40.9032 59.8819 37.7699 57.5904 36.3669L71.48 32.9529C69.5626 32.4852 67.6452 32.2046 65.681 32.1579L53.9894 27.7151C53.5685 27.5748 53.1476 27.4812 52.6799 27.3877C52.259 27.4345 51.2769 27.8086 50.248 29.4922C49.4998 30.8016 47.9565 33.327 45.8988 34.4962C43.3266 35.9927 37.2002 34.6833 29.9982 32.7658C29.2031 32.6723 28.4549 32.2982 27.8469 31.737C27.1454 32.0176 26.4439 32.3449 25.7424 32.7658C23.4976 34.1688 22.5155 36.8345 22.7493 40.1082L20.2707 44.5978L15.7344 48.1988L19.6628 50.7709L25.2747 47.8246Z" fill="#E63312"/>
<path d="M52.3064 50.2564C63.8577 51.4256 66.7573 41.932 66.7573 41.932C52.4467 42.1658 34.5352 37.0215 34.5352 37.0215C34.5352 37.0215 39.2118 48.9469 52.3064 50.2564Z" fill="white"/>
<path d="M84.3406 55.962C83.2182 50.2097 78.4013 50.2097 77.8401 52.7351C77.1853 60.5918 74.9405 68.2615 71.1992 75.183C73.3972 74.7621 75.5485 73.9671 77.5127 72.8914C79.7107 71.6287 86.9128 66.578 84.3406 55.962Z" fill="#E63312"/>
<path d="M23.0756 46.0943C20.6438 46.2813 19.6617 50.7709 19.6617 50.7709C16.0606 58.3939 20.6905 63.3043 22.1403 64.6138C23.4497 65.7362 24.9463 66.6715 26.5363 67.373C24.6657 61.0596 24.198 54.3719 25.2269 47.8714C25.2736 47.8246 25.5075 45.8604 23.0756 46.0943Z" fill="#E63312"/>
<path d="M19.2406 47.3102C17.9312 46.3281 15.7331 48.1988 15.7331 48.1988C13.8625 49.6953 12.4595 51.7063 11.7112 53.9511C9.84056 60.9193 14.5172 68.589 14.5172 68.589C15.8734 55.4476 19.6615 50.7709 19.6615 50.7709C20.1759 50.0227 20.5501 48.2923 19.2406 47.3102Z" fill="#E63312"/>
<path d="M20.4574 44.6445C20.4574 44.6445 18.3996 44.4106 15.6872 43.8962H15.6404L14.7519 43.7091C12.7877 43.2882 10.7767 43.8027 9.28018 45.1121C6.56772 48.0116 4.3697 52.7818 5.16473 60.4048C8.81252 49.9758 15.6872 48.1987 15.6872 48.1987C15.6872 48.1987 19.8026 47.7778 20.925 46.7489C21.533 46.2345 21.6733 44.7848 20.4574 44.6445Z" fill="#E63312"/>
<path d="M22.8894 40.1549C20.5511 37.3022 17.6983 34.9638 14.4714 33.1867C12.554 32.2046 9.51419 30.6613 9.51419 30.6613C13.1152 31.0822 16.763 30.7549 20.2237 29.6792C22.7023 28.5101 24.1053 25.7976 23.5441 23.0852L25.3213 23.2255L25.976 26.2653C32.0556 20.5598 31.4477 11.4871 31.4477 11.4871L21.6267 15.0413L33.5522 1.33875C33.5522 1.33875 11.2445 -4.97472 2.07832 15.4622C-3.90779 29.0245 4.32311 36.7877 10.543 40.4355C13.7232 42.0724 17.0436 43.4753 20.4575 44.5977C22.9829 45.4395 24.2924 45.0654 25.0407 44.2704C25.7422 43.4753 24.1053 41.137 22.8894 40.1549Z" fill="#E63312"/>
<path d="M83.9208 46.4216C83.9208 46.4216 85.3705 46.4684 87.3347 46.4216C88.7845 46.4216 96.0333 46.7022 99.1666 51.753C101.786 56.1958 103.189 62.7431 100.242 72.0029C98.3248 57.7859 90.0939 53.764 90.0939 53.764C90.0939 53.764 79.3844 51.2386 83.9208 46.4216Z" fill="#E63312"/>
<path d="M85.7442 52.1271C83.6865 52.8753 84.3412 55.9619 84.3412 55.9619C84.3412 55.9619 87.9422 62.9301 86.2119 79.9999C86.2119 79.9999 94.2089 71.5352 93.6477 62.1351C93.2736 59.0485 92.0109 56.149 90.0467 53.7639C89.2985 52.4544 87.8019 51.3788 85.7442 52.1271Z" fill="#E63312"/>
<path d="M55.297 15.5557C54.8293 12.9368 58.29 11.9079 59.8333 14.6671C61.0493 16.7248 63.0602 18.2214 65.3518 18.8761C65.5388 18.9229 65.6791 19.0632 65.7727 19.2502C65.913 19.5776 65.7727 19.9985 65.4453 20.1388C62.0781 21.495 55.8114 18.6423 55.297 15.5557Z" fill="#9C1006"/>
<path d="M46.2258 15.7427C47.1612 13.4511 44.2617 11.9078 42.3442 14.1058C40.8477 15.6959 38.8367 16.678 36.6855 16.8651C36.4984 16.8651 36.3581 16.9586 36.2646 17.0989C36.0775 17.3795 36.1243 17.7536 36.4049 17.9407C39.0706 19.7646 45.1502 18.3616 46.2258 15.7427Z" fill="#9C1006"/>
<path d="M22.1422 21.3547C22.5163 23.2253 22.6098 22.9447 23.4984 23.0383C23.4984 23.0383 24.2934 23.3656 24.2934 27.6214C24.2934 30.8015 25.0885 31.7368 30.0457 32.7189C32.6646 33.2801 41.3164 34.7766 43.9354 33.6075C47.0687 32.2045 48.9394 27.6681 49.4538 26.2651C49.5473 25.9845 49.7812 25.7975 50.0618 25.7507C50.8568 25.6104 51.6986 25.704 52.4936 25.9846C52.821 26.0781 53.0081 26.4054 53.0081 26.7328C52.9613 28.5099 53.1484 34.309 56.7494 36.0393C60.631 37.8632 70.8729 39.8274 74.1465 37.8632C76.7654 36.3199 77.5137 33.3737 78.4023 31.3627C78.9167 30.1935 79.3376 28.089 80.4132 28.1826C81.1147 28.1826 81.3485 27.294 81.3485 27.294C81.4888 26.7328 81.863 25.6104 80.647 25.3298C80.647 25.3298 76.5784 23.6462 68.3007 22.8512C63.8111 22.3835 59.3215 22.2432 54.7852 22.4303C54.4578 22.4303 54.1772 22.4303 53.8499 22.29C53.1484 22.0562 52.4469 21.9159 51.6986 21.8223C51.1374 21.7756 50.5294 21.7756 49.9682 21.9159C49.5941 22.0094 49.1732 22.0094 48.7991 21.9159C44.403 20.8402 39.9602 20.0452 35.4706 19.6243C27.6139 18.876 23.8258 19.6243 23.8258 19.6243C22.1889 19.9517 21.9083 20.0452 22.1422 21.3547Z" fill="#9C1006"/>
<path d="M75.1763 31.8771C74.9892 32.2512 74.5683 32.4383 74.1942 32.2512C73.8668 32.1109 73.5395 31.9239 73.2589 31.7368C72.6041 31.3159 71.9962 30.8482 71.435 30.3806C70.8738 29.8661 70.3126 29.3517 69.8449 28.7437C69.6111 28.4631 69.424 28.1825 69.237 27.8552C69.0967 27.6681 69.0967 27.3875 69.1902 27.2004C69.3305 26.8263 69.7981 26.6393 70.1723 26.8263C70.4996 26.9666 70.827 27.1537 71.1076 27.3408C71.7623 27.7616 72.3703 28.2293 72.9315 28.697C73.4927 29.2114 74.0539 29.7726 74.5216 30.3338C74.7554 30.6144 74.9425 30.895 75.1295 31.2224C75.2231 31.4094 75.2698 31.69 75.1763 31.8771Z" fill="white"/>
<path d="M68.0651 29.7729C67.9716 30.2405 67.5507 30.5211 67.1298 30.4276C66.9427 30.3808 66.7089 30.2873 66.5218 30.2405C66.1009 30.0535 65.7268 29.8196 65.3994 29.539C65.0721 29.2584 64.7915 28.9311 64.5109 28.5569C64.3706 28.3699 64.277 28.1828 64.1835 27.9957C64.1367 27.8554 64.1367 27.7151 64.1835 27.5749C64.277 27.154 64.6979 26.8266 65.1188 26.9201C65.3527 26.9669 65.5397 27.0604 65.7268 27.154C66.1477 27.341 66.5218 27.5749 66.8492 27.8555C67.1766 28.1361 67.4572 28.4634 67.7378 28.8375C67.8781 29.0246 67.9716 29.2117 68.0651 29.3987C68.1119 29.4455 68.1119 29.5858 68.0651 29.7729Z" fill="white"/>
<path d="M43.6529 27.7618C43.5126 28.1827 43.0917 28.3697 42.6708 28.2762C42.437 28.1827 42.1564 28.0891 41.9226 27.9488C41.4081 27.6682 40.9405 27.3409 40.5196 26.9667C40.0987 26.5926 39.6778 26.1717 39.3504 25.7041C39.1634 25.4702 39.0231 25.2364 38.9295 25.0026C38.836 24.8155 38.836 24.6284 38.9295 24.4414C39.0698 24.0205 39.4907 23.8334 39.9116 23.9269C40.1455 24.0205 40.4261 24.114 40.6599 24.2543C41.1743 24.5349 41.642 24.8623 42.0629 25.2364C42.4838 25.6105 42.8579 26.0314 43.232 26.4991C43.3723 26.7329 43.5126 26.92 43.6529 27.2006C43.7465 27.3876 43.7465 27.6215 43.6529 27.7618Z" fill="white"/>
<path d="M37.7136 26.5926C37.62 27.0602 37.1991 27.3408 36.7782 27.2473C36.5912 27.2005 36.3573 27.1538 36.1703 27.0602C35.7494 26.8732 35.3752 26.6393 35.0479 26.3587C34.7205 26.0781 34.4399 25.7508 34.1593 25.3766C34.019 25.1896 33.9255 25.0025 33.8319 24.8154C33.7852 24.6751 33.7852 24.5348 33.8319 24.3945C33.9255 23.9736 34.3464 23.693 34.7673 23.7866C34.9543 23.8333 35.1882 23.8801 35.3752 23.9736C35.7961 24.1607 36.1703 24.3945 36.4976 24.6751C36.825 24.9557 37.1056 25.2831 37.3862 25.6572C37.5265 25.8443 37.62 26.0314 37.7136 26.2184C37.7603 26.2652 37.7603 26.4523 37.7136 26.5926Z" fill="white"/>
</svg>
