<svg width="26" height="26" viewBox="0 0 26 26" fill="none" xmlns="http://www.w3.org/2000/svg">
<g clip-path="url(#clip0_298_2327)">
<path d="M6.59304 25.908C5.58738 25.8968 4.59117 25.7123 3.64816 25.3627C2.95953 25.1082 2.33648 24.703 1.82459 24.1767C1.29688 23.6658 0.891057 23.0426 0.637255 22.3534C0.287976 21.4104 0.103792 20.4143 0.0927843 19.4087C0.015549 17.7371 0 17.2357 0 13C0 8.76429 0.0170784 8.26469 0.0920196 6.59176C0.104363 5.58663 0.288774 4.59103 0.637255 3.64816C0.892292 2.95941 1.29754 2.33612 1.82357 1.82357C2.33483 1.29634 2.95816 0.890888 3.64739 0.637255C4.59041 0.287687 5.58661 0.103243 6.59227 0.0920196C8.26443 0.015549 8.76659 0 13 0C17.2334 0 17.7353 0.0170784 19.4082 0.0920196C20.4136 0.104275 21.4095 0.288688 22.3526 0.637255C23.0415 0.891223 23.6647 1.29653 24.1762 1.82331C24.7031 2.33496 25.1086 2.95829 25.3627 3.64739C25.7124 4.59039 25.8969 5.5866 25.9082 6.59227C25.9847 8.2652 26.0003 8.76608 26.0003 13.0005C26.0003 17.2349 25.9847 17.7358 25.9082 19.4087C25.8961 20.4143 25.7116 21.4102 25.3627 22.3534C25.0989 23.0373 24.6947 23.6584 24.1763 24.1767C23.6578 24.695 23.0366 25.099 22.3526 25.3627C21.4096 25.7124 20.4134 25.8969 19.4077 25.9082C17.7363 25.9847 17.2339 26.0003 12.9995 26.0003C8.76506 26.0003 8.26418 25.9855 6.59278 25.9082" fill="url(#paint0_radial_298_2327)"/>
<path d="M6.59304 25.908C5.58738 25.8968 4.59117 25.7123 3.64816 25.3627C2.95953 25.1082 2.33648 24.703 1.82459 24.1767C1.29688 23.6658 0.891057 23.0426 0.637255 22.3534C0.287976 21.4104 0.103792 20.4143 0.0927843 19.4087C0.015549 17.7371 0 17.2357 0 13C0 8.76429 0.0170784 8.26469 0.0920196 6.59176C0.104363 5.58663 0.288774 4.59103 0.637255 3.64816C0.892292 2.95941 1.29754 2.33612 1.82357 1.82357C2.33483 1.29634 2.95816 0.890888 3.64739 0.637255C4.59041 0.287687 5.58661 0.103243 6.59227 0.0920196C8.26443 0.015549 8.76659 0 13 0C17.2334 0 17.7353 0.0170784 19.4082 0.0920196C20.4136 0.104275 21.4095 0.288688 22.3526 0.637255C23.0415 0.891223 23.6647 1.29653 24.1762 1.82331C24.7031 2.33496 25.1086 2.95829 25.3627 3.64739C25.7124 4.59039 25.8969 5.5866 25.9082 6.59227C25.9847 8.2652 26.0003 8.76608 26.0003 13.0005C26.0003 17.2349 25.9847 17.7358 25.9082 19.4087C25.8961 20.4143 25.7116 21.4102 25.3627 22.3534C25.0989 23.0373 24.6947 23.6584 24.1763 24.1767C23.6578 24.695 23.0366 25.099 22.3526 25.3627C21.4096 25.7124 20.4134 25.8969 19.4077 25.9082C17.7363 25.9847 17.2339 26.0003 12.9995 26.0003C8.76506 26.0003 8.26418 25.9855 6.59278 25.9082" fill="url(#paint1_radial_298_2327)"/>
<path d="M9.80703 13.055C9.80708 12.4182 9.99597 11.7957 10.3498 11.2662C10.7036 10.7368 11.2065 10.3242 11.7949 10.0805C12.3832 9.83688 13.0306 9.77319 13.6552 9.89749C14.2797 10.0218 14.8534 10.3285 15.3036 10.7788C15.7538 11.2292 16.0604 11.8029 16.1846 12.4275C16.3087 13.0521 16.2449 13.6995 16.0011 14.2878C15.7573 14.876 15.3446 15.3788 14.815 15.7325C14.2855 16.0863 13.663 16.275 13.0262 16.2749C12.1723 16.2748 11.3535 15.9354 10.7498 15.3316C10.1461 14.7278 9.80696 13.9088 9.80703 13.055ZM8.0663 13.055C8.0663 14.0359 8.3572 14.9949 8.9022 15.8105C9.44719 16.6262 10.2218 17.2619 11.1281 17.6373C12.0344 18.0127 13.0317 18.1109 13.9938 17.9196C14.9559 17.7282 15.8397 17.2558 16.5334 16.5621C17.227 15.8685 17.6994 14.9847 17.8908 14.0226C18.0821 13.0605 17.9839 12.0632 17.6085 11.1569C17.2331 10.2506 16.5974 9.47598 15.7817 8.93098C14.9661 8.38598 14.0072 8.09509 13.0262 8.09509C12.3748 8.09505 11.7299 8.22332 11.1281 8.47257C10.5263 8.72182 9.97952 9.08715 9.51895 9.54773C9.05837 10.0083 8.69303 10.5551 8.44379 11.1569C8.19454 11.7586 8.06627 12.4036 8.0663 13.055ZM17.0233 7.89856C17.0232 8.1278 17.0911 8.35191 17.2184 8.54257C17.3456 8.73323 17.5266 8.88187 17.7383 8.96969C17.9501 9.0575 18.1831 9.08056 18.408 9.03594C18.6328 8.99132 18.8394 8.88102 19.0015 8.71899C19.1637 8.55697 19.2742 8.3505 19.319 8.12569C19.3638 7.90088 19.341 7.66782 19.2533 7.456C19.1657 7.24417 19.0172 7.06309 18.8267 6.93565C18.6361 6.80821 18.4121 6.74013 18.1828 6.74003C17.8756 6.74017 17.5809 6.86226 17.3636 7.07948C17.1463 7.2967 17.0241 7.59129 17.0238 7.89856H17.0233ZM9.1244 20.9174C8.5119 20.9107 7.90513 20.7986 7.33065 20.5861C6.91404 20.4255 6.53566 20.1794 6.21988 19.8638C5.90409 19.5481 5.6579 19.1699 5.49714 18.7533C5.2845 18.1789 5.17241 17.5721 5.16578 16.9596C5.11887 15.9415 5.1097 15.6356 5.1097 13.0562C5.1097 10.4769 5.11989 10.1718 5.16578 9.15268C5.17321 8.54025 5.28527 7.93359 5.49714 7.35893C5.65771 6.94218 5.90383 6.56371 6.21963 6.24791C6.53543 5.93211 6.91391 5.68599 7.33065 5.52542C7.9051 5.31278 8.5119 5.20069 9.1244 5.19405C10.1425 5.14715 10.4484 5.13797 13.0267 5.13797C15.605 5.13797 15.9112 5.14792 16.9303 5.19431C17.5427 5.20174 18.1493 5.31381 18.724 5.52568C19.1407 5.68626 19.5192 5.93238 19.835 6.24818C20.1508 6.56398 20.3969 6.94245 20.5575 7.35919C20.7701 7.93364 20.8822 8.54043 20.8889 9.15294C20.9358 10.1725 20.945 10.4769 20.945 13.0565C20.945 15.6361 20.9355 15.941 20.8889 16.9601C20.8818 17.5725 20.7697 18.1792 20.5575 18.7538C20.3968 19.1704 20.1506 19.5486 19.8348 19.8643C19.519 20.1799 19.1406 20.426 18.724 20.5866C18.1496 20.7992 17.5428 20.9113 16.9303 20.9179C15.9122 20.9648 15.6063 20.974 13.0267 20.974C10.4471 20.974 10.1422 20.9646 9.1244 20.9179V20.9174ZM9.04436 3.45486C8.24291 3.47062 7.44994 3.62231 6.69926 3.90348C6.05755 4.15159 5.47476 4.53107 4.98827 5.01756C4.50177 5.50406 4.1223 6.08685 3.87418 6.72856C3.59305 7.47925 3.44136 8.27221 3.42556 9.07366C3.37789 10.1035 3.36719 10.4328 3.36719 13.056C3.36719 15.6792 3.37815 16.0083 3.42556 17.0383C3.44135 17.8398 3.59304 18.6327 3.87418 19.3834C4.12231 20.0251 4.50179 20.6079 4.98828 21.0944C5.47478 21.5809 6.05756 21.9604 6.69926 22.2085C7.44998 22.4895 8.24292 22.6412 9.04436 22.6571C10.0747 22.704 10.4035 22.7155 13.0267 22.7155C15.6499 22.7155 15.979 22.7045 17.009 22.6571C17.8105 22.6413 18.6034 22.4896 19.3541 22.2085C19.9958 21.9604 20.5786 21.5809 21.0651 21.0944C21.5516 20.6079 21.9311 20.0251 22.1792 19.3834C22.4607 18.6328 22.6124 17.8398 22.6278 17.0383C22.6747 16.0078 22.6854 15.6792 22.6854 13.056C22.6854 10.4328 22.6745 10.1037 22.6278 9.07366C22.6121 8.27221 22.4604 7.47924 22.1792 6.72856C21.9311 6.08697 21.5517 5.50427 21.0654 5.01779C20.579 4.53131 19.9964 4.15177 19.3549 3.90348C18.6043 3.62213 17.8113 3.47043 17.0098 3.45486C15.9797 3.4077 15.6507 3.39648 13.028 3.39648C10.4053 3.39648 10.0754 3.40745 9.04487 3.45486" fill="white"/>
</g>
<defs>
<radialGradient id="paint0_radial_298_2327" cx="0" cy="0" r="1" gradientUnits="userSpaceOnUse" gradientTransform="translate(1.68261 25.4305) scale(33.0103)">
<stop offset="0.09" stop-color="#FA8F21"/>
<stop offset="0.78" stop-color="#D82D7E"/>
</radialGradient>
<radialGradient id="paint1_radial_298_2327" cx="0" cy="0" r="1" gradientUnits="userSpaceOnUse" gradientTransform="translate(18.0093 24.5955) scale(29.0494)">
<stop offset="0.64" stop-color="#8C3AAA" stop-opacity="0"/>
<stop offset="1" stop-color="#8C3AAA"/>
</radialGradient>
<clipPath id="clip0_298_2327">
<rect width="26" height="26" fill="white"/>
</clipPath>
</defs>
</svg>
