<svg width="113" height="100" viewBox="0 0 113 100" fill="none" xmlns="http://www.w3.org/2000/svg">
<path d="M104.214 34.2062L103.85 34.2754H103.832C102.711 34.4828 101.845 34.5847 101.845 34.5847C103.268 34.1056 104.653 33.5218 105.99 32.838C108.599 31.2951 112.045 28.0529 109.53 22.38C105.691 13.8287 96.3503 16.4632 96.3503 16.4632L101.335 22.1981L97.2236 20.7134C97.2236 20.7134 96.9689 24.516 99.5124 26.8994L99.789 25.6186L100.539 25.5676C100.431 26.1183 100.509 26.6894 100.762 27.1903C101.015 27.6912 101.428 28.0934 101.936 28.3331C103.385 28.7829 104.912 28.9242 106.419 28.748C106.419 28.748 105.134 29.392 104.341 29.7996C102.987 30.5305 101.789 31.5195 100.815 32.7107C100.913 31.3424 100.509 30.2108 99.5706 29.6322C99.2923 29.4644 99.0001 29.3208 98.6973 29.2028C98.4543 29.4403 98.1421 29.5944 97.8058 29.6431C94.8001 30.4473 92.2238 30.9968 91.154 30.3709C90.2989 29.8796 89.6475 28.8098 89.3346 28.2676C88.9088 27.5653 88.5086 27.4161 88.3266 27.387C88.142 27.422 87.9598 27.4681 87.7808 27.5253L82.8975 29.3775C82.0766 29.3982 81.2603 29.508 80.4631 29.705L86.2852 31.135C85.3355 31.7391 81.7658 33.0345 79.3242 32.8271C78.609 32.7495 77.9479 32.4099 77.4683 31.8737C77.1407 32.5607 77.0218 33.3286 77.1263 34.0825C77.1263 34.0825 76.6241 31.7755 71.668 28.9263C70.4492 28.2231 69.1918 27.5889 67.9018 27.0268C86.7692 26.6302 89.371 10.1935 89.371 10.1935L77.9596 14.1599L93.643 2.20629C87.3114 -1.62541 68.1711 -2.07662 61.7049 14.3309C57.2182 25.6986 65.4129 31.3643 69.3465 33.3402C71.2434 34.2537 73.2486 34.9226 75.3142 35.3306C75.3142 35.3306 74.7065 35.3524 73.8841 35.3306C73.2728 35.3306 70.2453 35.4543 68.9316 37.5539C67.84 39.4061 67.2469 42.1534 68.4841 46.0361C69.2846 40.0902 72.7342 38.3945 72.7342 38.3945C71.8966 39.3915 71.3703 40.6125 71.2205 41.906C70.9803 45.8214 74.3244 49.3729 74.3244 49.3729C73.5966 42.2444 75.1104 39.3224 75.1104 39.3224C74.0187 43.7582 77.0317 45.8723 77.9596 46.4109C78.7875 46.8673 79.6811 47.1926 80.6087 47.3752C79.0423 44.468 78.0957 41.2676 77.8286 37.976C79.0403 40.1302 81.9587 43.5435 88.1847 43.1141C94.0978 42.7065 98.086 39.2788 99.829 35.9274C100.261 38.6543 100.075 41.4434 99.2868 44.0893C99.9548 43.8027 100.575 43.4149 101.124 42.9394C101.743 42.3863 103.672 40.3231 102.169 37.1428C102.169 37.1428 103.766 39.1114 104.33 44.606C104.33 44.606 106.299 41.4038 105.509 38.4891C105.196 37.5345 104.607 36.6938 103.817 36.0729C103.817 36.0729 106.688 36.8262 108.22 41.1891C108.555 38.0088 107.642 36.022 106.503 34.7993C106.193 34.5302 105.825 34.3366 105.428 34.2337C105.031 34.1307 104.615 34.1213 104.214 34.2062Z" fill="#E63312"/>
<path d="M112.181 84.1456L15.3984 100V82.8028L112.181 67.0903V84.1456Z" fill="#E63312"/>
<path d="M19.6097 51.6362L21.269 51.3669V58.077L15.7089 58.9867V55.9628L5.56014 57.6257V60.6496L0 61.5593V54.8493L0.997041 54.6856C2.94746 54.3653 3.38048 51.014 3.38048 48.5214V42.5137L19.6061 39.8573L19.6097 51.6362ZM13.7875 44.6678L9.22445 45.3956V47.4843C9.28815 49.5364 8.93536 51.5801 8.18738 53.492L13.7875 52.575V44.6678Z" fill="#9C1006"/>
<path d="M45.8902 35.0904L52.9095 33.7841L58.6698 49.3983L52.6912 50.5118L52.2218 48.9434L46.1449 50.0788L45.6355 51.829L39.7188 52.9207L45.8902 35.0904ZM50.9846 45.0826L49.2743 39.5189L47.4549 45.7413L50.9846 45.0826Z" fill="#9C1006"/>
<path d="M15.4102 62.4727L21.2323 61.5157V66.8648L26.585 60.6387L34.4704 59.3469L28.2116 65.9551L35.0999 74.7137L27.8586 75.9L23.7904 70.2816L21.2432 72.8288V76.9844L15.4211 77.9377L15.4102 62.4727Z" fill="#9C1006"/>
<path d="M35.7812 59.1322L47.0616 57.2873C51.3773 56.5814 53.7207 58.0733 53.7243 61.2027C53.728 64.3321 51.3773 66.6173 47.0616 67.3232L41.6252 68.2147V73.6475L35.8031 74.6009L35.7812 59.1322ZM41.6034 61.5011V64.8488L44.7983 64.3248C46.5413 64.0374 47.3455 63.568 47.3455 62.2252C47.3455 60.8825 46.5558 60.6933 44.7983 60.9771L41.6034 61.5011Z" fill="#9C1006"/>
<path d="M59.9505 55.1733L67.3555 53.9615L73.436 68.4332L67.1299 69.4666L66.6314 68.0111L60.2198 69.0591L59.6776 70.6856L53.4297 71.7082L59.9505 55.1733ZM65.325 64.4341L63.5056 59.2779L61.5989 65.0454L65.325 64.4341Z" fill="#9C1006"/>
<path d="M90.5291 50.1661V53.492L80.3403 55.1623V57.5894L86.0861 56.6505C90.2416 55.9628 92.4249 57.3528 92.4249 60.4058C92.4249 63.4588 90.1434 65.6785 85.9514 66.3662L74.5 68.2439V52.7897L90.5291 50.1661ZM86.0861 61.4975C86.0861 60.2421 85.3583 60.0638 83.7426 60.3258L80.3403 60.8862V63.9755L83.7426 63.4151C85.3619 63.1568 86.0861 62.7383 86.0861 61.4975Z" fill="#9C1006"/>
<path d="M98.6776 48.8307L106.086 47.6154L112.167 62.087L105.861 63.1204L105.362 61.6649L98.9505 62.7165L98.4119 64.3394L92.1641 65.362L98.6776 48.8307ZM104.07 58.0916L102.251 52.9317L100.344 58.6992L104.07 58.0916Z" fill="#9C1006"/>
<path d="M95.9501 31.4043C95.9501 31.4043 88.4432 33.5439 82.4609 33.453C82.4609 33.453 83.6727 37.4193 88.5014 36.928C93.9924 36.3895 95.9501 31.4043 95.9501 31.4043Z" fill="white"/>
<path d="M83.0187 24.3522C82.9661 24.328 82.9221 24.2884 82.8923 24.2387C82.8626 24.1889 82.8486 24.1314 82.8521 24.0736C82.8556 24.0157 82.8766 23.9603 82.9122 23.9146C82.9477 23.8689 82.9963 23.8349 83.0515 23.8173C84.0166 23.5451 84.8416 22.9153 85.3585 22.0561C86.0099 20.8844 87.4654 21.3283 87.2616 22.42C87.0287 23.6972 84.4197 24.909 83.0187 24.3522Z" fill="#9C1006"/>
<path d="M95.1803 23.4243C95.2226 23.3935 95.2545 23.3505 95.2718 23.301C95.2891 23.2516 95.291 23.1981 95.2772 23.1476C95.2633 23.0971 95.2345 23.0519 95.1945 23.0182C95.1544 22.9844 95.1051 22.9636 95.053 22.9586C94.1444 22.8911 93.2952 22.4814 92.6768 21.8123C91.8799 20.8917 90.6645 21.5431 91.0503 22.4928C91.4942 23.5808 94.0523 24.1739 95.1803 23.4243Z" fill="#9C1006"/>
<path d="M100.431 24.1412C100.431 24.1412 98.8625 23.8246 95.5657 24.1412C93.6874 24.326 91.8253 24.6496 89.9946 25.1091C89.8336 25.1509 89.6645 25.1509 89.5034 25.1091C89.2649 25.0544 89.019 25.0396 88.7756 25.0655C88.4699 25.0949 88.1685 25.1584 87.8768 25.2547C87.7529 25.297 87.6218 25.3143 87.4911 25.3056C85.6071 25.2239 83.7196 25.2798 81.8437 25.473C78.3868 25.8114 76.6765 26.5137 76.6765 26.5137C76.1598 26.6374 76.3126 27.0923 76.3745 27.3325C76.3745 27.3325 76.4727 27.6963 76.7638 27.6963C77.2041 27.6672 77.3934 28.5442 77.6008 29.0281C77.9647 29.8687 78.2703 31.1059 79.3729 31.7536C80.7338 32.5578 85.0276 31.7536 86.6506 30.9822C88.1607 30.2544 88.2298 27.8237 88.2153 27.0814C88.2133 27.0146 88.2322 26.9489 88.2694 26.8935C88.3066 26.838 88.3602 26.7956 88.4227 26.7721C88.7457 26.6578 89.0923 26.6265 89.4306 26.6811C89.4875 26.6923 89.5404 26.7185 89.5839 26.7568C89.6273 26.7952 89.6598 26.8444 89.6781 26.8994C89.8891 27.4816 90.6715 29.3884 91.9924 29.9742C93.1022 30.4619 96.7229 29.8396 97.8145 29.6104C99.885 29.1919 100.216 28.7989 100.22 27.4707C100.22 25.6913 100.547 25.5458 100.547 25.5458C100.933 25.5094 100.962 25.6295 101.122 24.8471C101.228 24.294 101.115 24.254 100.431 24.1412Z" fill="#9C1006"/>
<path d="M78.9645 28.97C79.0438 28.8431 79.1313 28.7216 79.2265 28.6061C79.4333 28.3627 79.6571 28.1341 79.896 27.922C80.1366 27.7123 80.392 27.5201 80.6602 27.3471C80.7856 27.2657 80.9169 27.194 81.0532 27.1324C81.0906 27.1162 81.131 27.1076 81.1718 27.1071C81.2126 27.1066 81.2531 27.1141 81.291 27.1294C81.3289 27.1446 81.3634 27.1672 81.3925 27.1958C81.4217 27.2244 81.4448 27.2585 81.4607 27.2961C81.4797 27.341 81.488 27.3897 81.4848 27.4384C81.4816 27.487 81.4672 27.5343 81.4425 27.5763C81.3659 27.705 81.2782 27.8267 81.1805 27.9402C80.9746 28.1845 80.7508 28.4132 80.511 28.6243C80.2713 28.8352 80.0158 29.0274 79.7468 29.1992C79.6223 29.28 79.4922 29.3518 79.3575 29.4139C79.2817 29.447 79.1959 29.4487 79.1188 29.4187C79.0418 29.3887 78.9798 29.3294 78.9463 29.2538C78.9275 29.2082 78.9194 29.159 78.9225 29.1098C78.9257 29.0606 78.94 29.0128 78.9645 28.97Z" fill="white"/>
<path d="M81.9043 28.1724C81.9377 28.089 81.9804 28.0097 82.0316 27.936C82.1355 27.7846 82.2577 27.6466 82.3953 27.525C82.5364 27.4052 82.693 27.3049 82.8608 27.2268C82.9417 27.1865 83.0272 27.156 83.1153 27.1359C83.1593 27.1275 83.2045 27.1279 83.2483 27.1371C83.2921 27.1463 83.3336 27.1641 83.3705 27.1895C83.4074 27.2148 83.4389 27.2473 83.4631 27.2849C83.4874 27.3225 83.5039 27.3646 83.5118 27.4086C83.53 27.4679 83.53 27.5312 83.5118 27.5905C83.4784 27.6738 83.4357 27.7531 83.3845 27.8269C83.2813 27.9778 83.1591 28.1147 83.0208 28.2342C82.8797 28.355 82.7231 28.4565 82.5553 28.5361C82.4739 28.5743 82.3885 28.6036 82.3007 28.6233C82.257 28.6323 82.2119 28.6324 82.1681 28.6236C82.1243 28.6149 82.0827 28.5974 82.0458 28.5723C82.0088 28.5473 81.9773 28.515 81.953 28.4776C81.9287 28.4401 81.9121 28.3982 81.9043 28.3542C81.8861 28.295 81.8861 28.2316 81.9043 28.1724Z" fill="white"/>
<path d="M92.1254 27.2923C92.1767 27.1929 92.2364 27.0979 92.3037 27.0085C92.4479 26.8187 92.61 26.6433 92.7877 26.4845C92.9668 26.3264 93.1619 26.1873 93.3699 26.0697C93.4686 26.0132 93.5721 25.9657 93.6792 25.9278C93.7603 25.9025 93.8481 25.9101 93.9236 25.9489C93.9992 25.9876 94.0565 26.0546 94.0831 26.1352C94.1126 26.2113 94.1126 26.2956 94.0831 26.3717C94.0332 26.4731 93.9735 26.5694 93.9048 26.6592C93.7606 26.85 93.5972 27.0256 93.4172 27.1832C93.2373 27.3402 93.0422 27.4792 92.835 27.598C92.7378 27.6548 92.6355 27.7023 92.5294 27.7399C92.4478 27.7663 92.3591 27.7593 92.2827 27.7204C92.2063 27.6816 92.1485 27.614 92.1218 27.5325C92.0936 27.4547 92.0949 27.3693 92.1254 27.2923Z" fill="white"/>
<path d="M94.6092 26.8442C94.6431 26.7604 94.687 26.681 94.7401 26.6078C94.8441 26.4565 94.9662 26.3185 95.1038 26.1969C95.2449 26.0771 95.4015 25.9768 95.5693 25.8987C95.6486 25.8582 95.733 25.8288 95.8202 25.8114C95.8642 25.8024 95.9095 25.8023 95.9536 25.811C95.9976 25.8197 96.0394 25.8371 96.0766 25.8622C96.1139 25.8872 96.1458 25.9194 96.1704 25.9569C96.1951 25.9944 96.212 26.0364 96.2203 26.0805C96.2357 26.1401 96.2357 26.2027 96.2203 26.2624C96.1864 26.3462 96.1425 26.4256 96.0894 26.4987C95.9862 26.6496 95.864 26.7865 95.7257 26.9061C95.5846 27.0269 95.4281 27.1284 95.2602 27.2079C95.1801 27.2464 95.0959 27.2757 95.0093 27.2952C94.9653 27.3042 94.92 27.3043 94.8759 27.2956C94.8319 27.2869 94.7901 27.2695 94.7529 27.2444C94.7156 27.2194 94.6837 27.1872 94.6591 27.1497C94.6344 27.1122 94.6175 27.0702 94.6092 27.0261C94.5938 26.9664 94.5938 26.9039 94.6092 26.8442Z" fill="white"/>
<path d="M39.3001 40.3304C39.321 41.0867 39.1678 41.8377 38.8523 42.5254C38.5368 43.2131 38.0676 43.8192 37.4807 44.2967C39.0563 44.6133 39.8678 45.8432 39.8678 47.9355C39.8678 51.0504 38.1648 52.9717 34.737 53.6303L22.9727 55.89V39.3442L34.0347 37.2192C37.6226 36.5314 39.3001 37.1646 39.3001 40.3304ZM28.2999 44.5369L31.8842 43.8491C33.1505 43.6053 33.74 43.3797 33.74 42.3063C33.74 41.2328 33.1323 41.2656 31.8842 41.5021L28.2999 42.1898V44.5369ZM32.0697 49.9951C33.4743 49.7295 34.1548 49.4857 34.1548 48.2558C34.1548 47.0258 33.5107 46.9894 32.0697 47.266L28.2999 47.9938V50.7265L32.0697 49.9951Z" fill="#9C1006"/>
<path d="M28.2205 85.0918C28.2225 85.2835 28.1762 85.4727 28.0859 85.6418C27.9956 85.811 27.8642 85.9547 27.7038 86.0597C27.8067 86.0727 27.906 86.1059 27.996 86.1575C28.086 86.2091 28.1648 86.2779 28.2281 86.3601C28.2914 86.4423 28.3377 86.5362 28.3645 86.6364C28.3913 86.7366 28.398 86.8411 28.3842 86.9439C28.3842 87.7044 27.8966 88.1739 26.9287 88.334L23.5664 88.8834V84.8516L26.7286 84.3349C27.7401 84.1675 28.2205 84.3203 28.2205 85.0918ZM25.0765 86.1179L26.099 85.9505C26.4629 85.8923 26.6303 85.8377 26.6303 85.5866C26.6303 85.3356 26.4593 85.3319 26.099 85.3902L25.0765 85.5575V86.1179ZM26.1682 87.4534C26.5684 87.3879 26.7649 87.3297 26.7649 87.0276C26.7649 86.7256 26.5794 86.7183 26.1682 86.7875L25.0765 86.9621V87.628L26.1682 87.4534Z" fill="white"/>
<path d="M31.4426 84.4876C31.2941 84.5035 31.1503 84.5484 31.0193 84.62C30.8882 84.6915 30.7726 84.7882 30.679 84.9044C30.5854 85.0207 30.5156 85.1543 30.4737 85.2976C30.4317 85.4408 30.4185 85.5909 30.4346 85.7393C30.4346 86.4453 30.7985 86.7655 31.4426 86.66C31.6511 86.641 31.8476 86.5543 32.002 86.413C32.1565 86.2717 32.2604 86.0836 32.2977 85.8776L34.0516 85.5902C33.8952 86.7218 33.0073 87.4569 31.4426 87.7116C29.6887 87.9991 28.8008 87.4169 28.8008 86.0232C28.8008 84.6295 29.6887 83.7562 31.4426 83.476C33.0873 83.2067 33.9898 83.7089 34.0407 84.8515L32.3013 85.1353C32.3072 85.0292 32.2868 84.9232 32.2421 84.8268C32.1973 84.7304 32.1295 84.6465 32.0446 84.5825C31.9598 84.5185 31.8605 84.4764 31.7555 84.4598C31.6505 84.4433 31.543 84.4528 31.4426 84.4876Z" fill="white"/>
<path d="M34.6172 83.0393L38.78 82.3589V83.3305L36.1382 83.7635V84.2474L38.2779 83.8836V84.8733L36.1382 85.2372V85.7685L38.911 85.3173V86.3543L34.6172 87.0566V83.0393Z" fill="white"/>
<path d="M43.3016 81.613V82.621L40.9036 83.014V86.0379L39.3789 86.2889V82.2571L43.3016 81.613Z" fill="white"/>
<path d="M48.5334 83.8327L48.9664 83.7599V85.5138L47.5109 85.7503V84.9644L44.8618 85.3974V86.187L43.4062 86.4235V84.6732L43.6646 84.6296C44.174 84.5459 44.2868 83.6726 44.2868 83.0249V81.4565L48.5188 80.7651L48.5334 83.8327ZM47.0123 82.0133L45.8224 82.2098V82.7556C45.8396 83.29 45.7479 83.8223 45.5532 84.3203L47.0087 84.0801L47.0123 82.0133Z" fill="white"/>
<path d="M50.6017 80.4195L52.5339 80.1029L54.1204 83.8727L52.4757 84.142L52.3447 83.7781L50.6708 84.0547L50.5325 84.4768L48.9023 84.7424L50.6017 80.4195ZM52.0026 82.832L51.5332 81.4857L51.0347 82.9921L52.0026 82.832Z" fill="white"/>
<path d="M59.4116 79.9063C59.1125 79.9393 58.8387 80.0896 58.6504 80.3243C58.462 80.5591 58.3746 80.8589 58.4073 81.1581C58.4073 81.864 58.7712 82.1842 59.4116 82.0751C59.6221 82.0557 59.8203 81.9675 59.9755 81.8241C60.1308 81.6807 60.2344 81.4901 60.2704 81.2818L62.0206 80.9943C61.8642 82.126 60.9763 82.8611 59.4152 83.1158C57.6613 83.4033 56.7734 82.821 56.7734 81.4274C56.7734 80.0337 57.6613 79.1604 59.4116 78.8802C61.06 78.6109 61.9588 79.1131 62.0097 80.252L60.274 80.5395C60.2267 80.0555 59.921 79.8226 59.4116 79.9063Z" fill="white"/>
<path d="M67.2585 78.6983C67.2598 78.8903 67.2128 79.0796 67.1219 79.2487C67.0309 79.4178 66.899 79.5614 66.7381 79.6662C66.841 79.6788 66.9404 79.7116 67.0305 79.7628C67.1206 79.8139 67.1998 79.8824 67.2634 79.9642C67.327 80.046 67.3737 80.1397 67.401 80.2396C67.4282 80.3396 67.4355 80.444 67.4222 80.5468C67.4222 81.3073 66.9346 81.7767 65.9667 81.9405L62.5898 82.49V78.4581L65.752 77.9378C66.7781 77.7704 67.2585 77.9269 67.2585 78.6983ZM64.1145 79.7244L65.137 79.5571C65.5009 79.4988 65.6683 79.4406 65.6683 79.1932C65.6683 78.9457 65.4936 78.9348 65.137 78.9967L64.1145 79.1641V79.7244ZM65.2062 81.0599C65.6064 80.9944 65.8029 80.9325 65.8029 80.6342C65.8029 80.3358 65.6174 80.3249 65.2062 80.3904L64.1145 80.5687V81.2346L65.2062 81.0599Z" fill="white"/>
<path d="M68.0469 77.563L72.2097 76.8789V77.8723L69.5679 78.3053V78.7893L71.7039 78.4254V79.4152L69.5679 79.7791V80.314L72.3371 79.8591V80.8962L68.0469 81.5948V77.563Z" fill="white"/>
<path d="M77.0978 76.0819V77.4756L78.3823 75.8709L80.3546 75.547L78.7862 77.2645L80.5147 79.5643L78.6952 79.8627L77.7382 78.3089L77.0978 79.0366V80.1283L75.5731 80.3757V79.2841L74.9327 78.771L73.9757 80.6377L72.1562 80.9361L73.8847 78.0724L72.3127 76.8679L74.2886 76.544L75.5731 77.7267V76.333L77.0978 76.0819Z" fill="white"/>
<path d="M84.0311 78.9639V76.5622L82.3827 79.2332L80.6797 79.5133V75.4961L82.1534 75.2559V77.5738L83.7509 74.9939L85.472 74.7101V78.7419L84.0311 78.9639Z" fill="white"/>
<path d="M86.3281 74.5682L90.4909 73.8877V74.8775L87.8492 75.325V75.809L89.9852 75.4451V76.4167L87.8492 76.7806V77.3118L90.6183 76.8606V77.8977L86.3281 78.6V74.5682Z" fill="white"/>
<path d="M23.5508 91.5178L25.8069 91.1539L26.4728 93.501L27.2005 90.9283L29.4239 90.5645V94.5963L28.012 94.8292V91.6779L27.0732 94.9747L25.8833 95.1712L24.9626 92.1728V95.3204L23.5508 95.5533V91.5178Z" fill="white"/>
<path d="M32.6887 89.9167C34.4426 89.6293 35.3305 90.2115 35.3305 91.6052C35.3305 92.9988 34.4426 93.8831 32.6887 94.1705C30.9348 94.458 30.0469 93.8649 30.0469 92.4676C30.0469 91.0703 30.9311 90.2006 32.6887 89.9167ZM32.6887 93.1189C32.8369 93.1035 32.9807 93.0589 33.1117 92.9878C33.2427 92.9166 33.3584 92.8203 33.452 92.7043C33.5457 92.5884 33.6155 92.455 33.6575 92.312C33.6995 92.1689 33.7128 92.019 33.6966 91.8708C33.6966 91.1649 33.3327 90.841 32.6887 90.9465C32.389 90.9804 32.1148 91.1314 31.926 91.3666C31.7372 91.6017 31.649 91.902 31.6807 92.2019C31.6807 92.9079 32.0228 93.2281 32.6887 93.1189Z" fill="white"/>
<path d="M35.9648 89.4838L38.9014 89.0035C40.0258 88.8179 40.6371 89.2072 40.6371 90.0223C40.6371 90.8374 40.0258 91.4342 38.9014 91.6198L37.4822 91.849V93.2682L35.9648 93.5156V89.4838ZM37.4822 90.1024V90.9721L38.3155 90.8374C38.7704 90.761 38.9778 90.6409 38.9778 90.288C38.9778 89.935 38.7704 89.8913 38.3155 89.9641L37.4822 90.1024Z" fill="white"/>
<path d="M40.7305 88.7051L44.8933 88.021V89.0108L42.2515 89.4438V89.9277L44.3875 89.5639V90.5536L42.2515 90.9175V91.4524L45.0243 90.9976V92.0346L40.7305 92.7406V88.7051Z" fill="white"/>
<path d="M45.5117 87.9191L50.2895 87.1367V91.1685L48.7685 91.4196V88.3921L47.0328 88.6759V91.6998L45.5117 91.9473V87.9191Z" fill="white"/>
<path d="M51.1562 86.9948L54.0928 86.5144C55.2172 86.3289 55.8285 86.7182 55.8285 87.5333C55.8285 88.3484 55.2172 88.9452 54.0928 89.1308L52.6736 89.3637V90.7792L51.1562 91.0266V86.9948ZM52.6736 87.6134V88.4867L53.5069 88.3484C53.9618 88.2756 54.1692 88.1519 54.1692 87.8026C54.1692 87.4533 53.9618 87.4023 53.5069 87.4751L52.6736 87.6134Z" fill="white"/>
<path d="M58.759 85.6448C60.5129 85.3573 61.4008 85.9395 61.4008 87.3332C61.4008 88.7269 60.5129 89.6111 58.759 89.8986C57.0051 90.186 56.1172 89.5929 56.1172 88.1992C56.1172 86.8056 57.0051 85.9322 58.759 85.6448ZM58.759 88.8469C58.9068 88.8315 59.0501 88.7871 59.1806 88.7161C59.3112 88.6451 59.4264 88.5491 59.5198 88.4334C59.6131 88.3178 59.6827 88.1848 59.7244 88.0422C59.7662 87.8996 59.7794 87.7502 59.7633 87.6025C59.7633 86.8965 59.3994 86.569 58.759 86.6782C58.6105 86.6941 58.4667 86.7391 58.3357 86.8106C58.2047 86.8821 58.089 86.9788 57.9954 87.095C57.9018 87.2113 57.832 87.3449 57.7901 87.4882C57.7481 87.6314 57.7349 87.7816 57.751 87.93C57.751 88.6359 58.104 88.9561 58.759 88.8469Z" fill="white"/>
<path d="M66.7719 87.5079L67.2049 87.4387V89.189L65.7494 89.4255V88.6359L63.104 89.0689V89.8585L61.6484 90.0951V88.3484L61.9104 88.3048C62.4162 88.2211 62.5327 87.3477 62.5327 86.6964V85.1499L66.7719 84.4221V87.5079ZM65.2509 85.6884L64.0428 85.8777V86.4198C64.0596 86.9554 63.968 87.4889 63.7735 87.9882L65.2291 87.748L65.2509 85.6884Z" fill="white"/>
<path d="M68.0442 87.2967C68.5063 87.3768 68.772 87.2531 68.9102 86.9037L67.0508 84.3893L68.8338 84.0982L69.598 85.7429L70.2966 83.858L72.0433 83.5706L70.4203 86.7582C70.2697 87.0905 70.083 87.4054 69.8636 87.697C69.6077 87.9961 69.2497 88.1893 68.8593 88.2392C68.5906 88.2785 68.3184 88.2871 68.0478 88.2647L68.0442 87.2967Z" fill="white"/>
<path d="M72.2578 83.5379L73.7788 83.2904V84.6841L75.1725 83.0612L77.2285 82.7228L75.5946 84.4476L77.3922 86.7291L75.5037 87.0384L74.4448 85.5829L73.7788 86.2415V87.3332L72.2578 87.5806V83.5379Z" fill="white"/>
<path d="M78.5676 83.527L77.1484 83.7599V82.7374L81.515 82.0096V83.0322L80.0886 83.265V86.278L78.5639 86.5254L78.5676 83.527Z" fill="white"/>
<path d="M83.4781 81.7004V83.1996L84.9773 82.9558C86.0689 82.7775 86.6329 83.1377 86.6329 83.9383C86.6329 84.7388 86.0653 85.3101 84.9773 85.4884L81.957 85.9833V81.9515L83.4781 81.7004ZM84.9773 84.2221C84.9773 83.8946 84.788 83.8582 84.3659 83.9165L83.4781 84.062V84.8662L84.3659 84.7206C84.7844 84.6515 84.9773 84.5423 84.9773 84.2221ZM87.3643 81.0636L88.8817 80.8162V84.848L87.3607 85.0954L87.3643 81.0636Z" fill="white"/>
<path d="M105.298 72C104.439 72.9352 102.904 74.2852 99.5959 73.6193C98.0548 73.269 96.4415 73.43 95 74.0778V75.7917C95.634 75.3956 96.3407 75.1301 97.0786 75.0107C97.8166 74.8914 98.571 74.9206 99.2975 75.0966C102.234 75.6861 104.108 74.9074 105.298 74.0268V72Z" fill="white"/>
<path d="M104.939 75.2668C104.04 76.1729 102.497 77.25 99.4808 76.6387C97.8524 76.2657 96.145 76.4675 94.6484 77.21V78.9639C95.4199 78.3962 96.9191 77.6503 99.1824 78.1051C101.93 78.6582 103.749 78.0105 104.946 77.2063L104.939 75.2668Z" fill="white"/>
<path d="M104.939 79.0148C104.011 79.859 102.482 80.7214 99.7059 80.161C97.989 79.7626 96.1855 80.0114 94.6406 80.8597V82.6791C95.3138 82.1078 96.8894 81.1289 99.4111 81.6347C101.933 82.1405 103.741 81.6347 104.939 80.8888V79.0148Z" fill="white"/>
</svg>
