<svg width="18" height="18" viewBox="0 0 18 18" fill="none" xmlns="http://www.w3.org/2000/svg">
<path d="M16.2271 12.26L13.6871 11.97C13.0771 11.9 12.4771 12.11 12.0471 12.54L10.2071 14.38C7.37711 12.94 5.05711 10.63 3.61711 7.79001L5.46711 5.94001C5.89711 5.51001 6.10711 4.91001 6.03711 4.30001L5.74711 1.78001C5.62711 0.77001 4.77711 0.0100098 3.75711 0.0100098H2.02711C0.897111 0.0100098 -0.042889 0.95001 0.027111 2.08001C0.557111 10.62 7.38711 17.44 15.9171 17.97C17.0471 18.04 17.9871 17.1 17.9871 15.97V14.24C17.9971 13.23 17.2371 12.38 16.2271 12.26Z" fill="#E63312"/>
</svg>
