<svg width="18" height="18" viewBox="0 0 18 18" fill="none" xmlns="http://www.w3.org/2000/svg">
<path d="M9 1.5C7.51664 1.5 6.0666 1.93987 4.83323 2.76398C3.59986 3.58809 2.63856 4.75943 2.07091 6.12987C1.50325 7.50032 1.35472 9.00832 1.64411 10.4632C1.9335 11.918 2.64781 13.2544 3.6967 14.3033C4.7456 15.3522 6.08197 16.0665 7.53683 16.3559C8.99168 16.6453 10.4997 16.4968 11.8701 15.9291C13.2406 15.3614 14.4119 14.4001 15.236 13.1668C16.0601 11.9334 16.5 10.4834 16.5 9C16.4978 7.01156 15.7069 5.10519 14.3009 3.69914C12.8948 2.2931 10.9884 1.50221 9 1.5ZM9 15C7.81332 15 6.65328 14.6481 5.66658 13.9888C4.67989 13.3295 3.91085 12.3925 3.45673 11.2961C3.0026 10.1997 2.88378 8.99334 3.11529 7.82946C3.3468 6.66557 3.91825 5.59647 4.75736 4.75736C5.59648 3.91824 6.66558 3.3468 7.82946 3.11529C8.99335 2.88378 10.1997 3.0026 11.2961 3.45672C12.3925 3.91085 13.3295 4.67988 13.9888 5.66658C14.6481 6.65327 15 7.81331 15 9C14.9982 10.5907 14.3655 12.1158 13.2406 13.2406C12.1158 14.3655 10.5907 14.9982 9 15ZM10.5736 7.22534L9.75 7.70105V5.25C9.75 5.05109 9.67099 4.86032 9.53033 4.71967C9.38968 4.57902 9.19892 4.5 9 4.5C8.80109 4.5 8.61033 4.57902 8.46967 4.71967C8.32902 4.86032 8.25 5.05109 8.25 5.25V9C8.25004 9.13164 8.28471 9.26096 8.35054 9.37496C8.41637 9.48896 8.51104 9.58363 8.62504 9.64946C8.73904 9.71529 8.86835 9.74997 8.99999 9.75C9.13164 9.75004 9.26097 9.71543 9.375 9.64966L11.3236 8.52466C11.409 8.47544 11.4838 8.40988 11.5438 8.33174C11.6039 8.25359 11.6479 8.16438 11.6734 8.06921C11.699 7.97403 11.7055 7.87476 11.6927 7.77706C11.6798 7.67936 11.6479 7.58515 11.5986 7.49981C11.5493 7.41447 11.4837 7.33967 11.4056 7.27968C11.3274 7.2197 11.2382 7.1757 11.143 7.15022C11.0478 7.12473 10.9485 7.11824 10.8508 7.13113C10.7531 7.14402 10.6589 7.17604 10.5736 7.22534Z" fill="#FFA654"/>
</svg>
