<svg width="38" height="38" viewBox="0 0 38 38" fill="none" xmlns="http://www.w3.org/2000/svg">
<circle cx="19" cy="19" r="19" fill="#E63312"/>
<g clip-path="url(#clip0_588_89)">
<path fill-rule="evenodd" clip-rule="evenodd" d="M19.0038 7.99805C12.9406 7.99805 7.9961 12.9347 7.99609 18.9979C7.99608 25.0611 12.9405 30.0036 19.0038 30.0036C25.067 30.0036 30.0017 25.0611 30.0017 18.9979C30.0017 12.9347 25.067 7.99805 19.0038 7.99805ZM19.0038 9.99802C23.9861 9.99802 28.0017 14.0156 28.0017 18.9979C28.0017 23.9802 23.9861 28.0037 19.0038 28.0037C14.0214 28.0037 9.99606 23.9802 9.99607 18.9979C9.99608 14.0156 14.0214 9.99802 19.0038 9.99802ZM18.9881 11.9843C18.856 11.9856 18.7254 12.0131 18.6039 12.0651C18.4825 12.1172 18.3725 12.1928 18.2804 12.2876C18.1883 12.3824 18.116 12.4945 18.0675 12.6174C18.019 12.7404 17.9953 12.8717 17.9979 13.0038V18.9979C17.9985 19.1295 18.025 19.2597 18.0759 19.381C18.1268 19.5023 18.2012 19.6124 18.2948 19.7049L22.2947 23.7068C22.3872 23.8025 22.4977 23.8788 22.62 23.9312C22.7423 23.9837 22.8738 24.0112 23.0068 24.0121C23.1398 24.0131 23.2717 23.9875 23.3947 23.9369C23.5177 23.8863 23.6294 23.8116 23.7232 23.7173C23.817 23.623 23.8911 23.5109 23.941 23.3876C23.991 23.2643 24.0158 23.1322 24.0141 22.9992C24.0124 22.8662 23.9842 22.7349 23.9311 22.6129C23.878 22.4909 23.8011 22.3808 23.7049 22.2889L19.9998 18.5839V13.0038C20.0025 12.8699 19.9781 12.7368 19.9283 12.6124C19.8785 12.4881 19.8042 12.375 19.7098 12.2799C19.6155 12.1848 19.503 12.1096 19.379 12.0589C19.255 12.0081 19.1221 11.9827 18.9881 11.9843Z" fill="white"/>
</g>
<defs>
<clipPath id="clip0_588_89">
<rect width="24" height="24" fill="white" transform="translate(6 7)"/>
</clipPath>
</defs>
</svg>
