<svg width="26" height="26" viewBox="0 0 26 26" fill="none" xmlns="http://www.w3.org/2000/svg">
<g clip-path="url(#clip0_298_2332)">
<path d="M6.59304 25.908C5.58738 25.8968 4.59117 25.7123 3.64816 25.3627C2.95953 25.1082 2.33648 24.703 1.82459 24.1767C1.29688 23.6658 0.891057 23.0426 0.637255 22.3534C0.287976 21.4104 0.103792 20.4143 0.0927843 19.4087C0.015549 17.7371 0 17.2357 0 13C0 8.76429 0.0170784 8.26469 0.0920196 6.59176C0.104363 5.58663 0.288774 4.59103 0.637255 3.64816C0.892292 2.95941 1.29754 2.33612 1.82357 1.82357C2.33483 1.29634 2.95816 0.890888 3.64739 0.637255C4.59041 0.287687 5.58661 0.103243 6.59227 0.0920196C8.26443 0.015549 8.76659 0 13 0C17.2334 0 17.7353 0.0170784 19.4082 0.0920196C20.4136 0.104275 21.4095 0.288688 22.3526 0.637255C23.0415 0.891223 23.6647 1.29653 24.1762 1.82331C24.7031 2.33496 25.1086 2.95829 25.3627 3.64739C25.7124 4.59039 25.8969 5.5866 25.9082 6.59227C25.9847 8.2652 26.0003 8.76608 26.0003 13.0005C26.0003 17.2349 25.9847 17.7358 25.9082 19.4087C25.8961 20.4143 25.7116 21.4102 25.3627 22.3534C25.0989 23.0373 24.6947 23.6584 24.1763 24.1767C23.6578 24.695 23.0366 25.099 22.3526 25.3627C21.4096 25.7124 20.4134 25.8969 19.4077 25.9082C17.7363 25.9847 17.2339 26.0003 12.9995 26.0003C8.76506 26.0003 8.26418 25.9855 6.59278 25.9082" fill="#0077FF"/>
<path d="M20.6353 8.85584C20.4553 9.42184 20.2127 9.91451 19.9087 10.3618L19.9213 10.3418C19.6227 10.8396 19.266 11.4147 18.8513 12.0672C18.4958 12.5823 18.3076 12.8489 18.2867 12.8672C18.1947 12.9825 18.1307 13.1238 18.1087 13.2792L18.108 13.2838C18.126 13.4252 18.1913 13.5485 18.2867 13.6405L18.5533 13.9378C19.98 15.4041 20.7824 16.4147 20.9607 16.9698C20.984 17.0312 20.9973 17.1018 20.9973 17.1758C20.9973 17.3052 20.956 17.4245 20.886 17.5225L20.8873 17.5205C20.77 17.6412 20.606 17.7158 20.4247 17.7158C20.4047 17.7158 20.384 17.7152 20.3647 17.7132H20.3673H18.6133C18.6127 17.7132 18.6113 17.7132 18.61 17.7132C18.3853 17.7132 18.1787 17.6345 18.0167 17.5038L18.0187 17.5052C17.7827 17.3112 17.5727 17.1012 17.3847 16.8732L17.3787 16.8652C17.0716 16.5181 16.7991 16.2258 16.5613 15.9885C15.7693 15.2356 15.1849 14.8592 14.808 14.8592C14.794 14.8578 14.778 14.8572 14.7613 14.8572C14.6513 14.8572 14.5487 14.8912 14.464 14.9492L14.466 14.9478C14.3967 15.0345 14.3547 15.1465 14.3547 15.2672C14.3547 15.2912 14.356 15.3138 14.3593 15.3372V15.3345C14.3413 15.5438 14.3307 15.7872 14.3307 16.0332C14.3307 16.1125 14.332 16.1912 14.334 16.2698V16.2585V17.0312C14.3407 17.0625 14.3447 17.0985 14.3447 17.1352C14.3447 17.2965 14.2713 17.4405 14.1567 17.5358L14.156 17.5365C13.898 17.6545 13.5967 17.7238 13.2787 17.7238C13.2107 17.7238 13.144 17.7205 13.078 17.7145L13.0867 17.7152C12.0373 17.6952 11.064 17.3878 10.2367 16.8698L10.26 16.8832C9.25267 16.2712 8.418 15.4745 7.782 14.5332L7.764 14.5052C7.16 13.7038 6.59667 12.7985 6.11667 11.8438L6.07 11.7412C5.78933 11.2065 5.49867 10.5492 5.248 9.87317L5.208 9.74984C5.106 9.44584 5.032 9.09251 5.00133 8.72651L5 8.70984C5 8.37295 5.19822 8.20451 5.59467 8.20451H7.348C7.364 8.20317 7.38267 8.20251 7.402 8.20251C7.56733 8.20251 7.72 8.25917 7.84067 8.35451L7.83933 8.35317C7.97267 8.49917 8.07133 8.67851 8.12 8.87851L8.122 8.88651C8.44467 9.79784 8.78667 10.5632 9.18 11.2965L9.13533 11.2052C9.45667 11.8518 9.812 12.4085 10.2173 12.9225L10.202 12.9018C10.5576 13.3383 10.8349 13.5565 11.034 13.5565C11.04 13.5572 11.0473 13.5572 11.0553 13.5572C11.154 13.5572 11.24 13.5038 11.2867 13.4238L11.2873 13.4225C11.3367 13.2958 11.3653 13.1485 11.3653 12.9952C11.3653 12.9625 11.364 12.9298 11.3613 12.8978V12.9018V10.3158C11.3473 10.0112 11.2727 9.72651 11.148 9.47117L11.1533 9.48384C11.0707 9.30784 10.9713 9.15584 10.8533 9.02051L10.8553 9.02317C10.746 8.91384 10.6713 8.77051 10.648 8.61051L10.6473 8.60651C10.6473 8.49317 10.6993 8.39117 10.7807 8.32451L10.7813 8.32384C10.862 8.24984 10.97 8.20517 11.088 8.20517H11.0933H13.8573C13.872 8.20317 13.8887 8.20251 13.906 8.20251C14.036 8.20251 14.1527 8.26117 14.23 8.35317L14.2307 8.35384C14.2993 8.47917 14.34 8.62917 14.34 8.78784C14.34 8.81317 14.3387 8.83784 14.3367 8.86251V8.85917V12.3078C14.3353 12.3238 14.3347 12.3425 14.3347 12.3612C14.3347 12.4838 14.3687 12.5992 14.4273 12.6972L14.426 12.6945C14.4747 12.7665 14.556 12.8132 14.648 12.8132H14.6487C14.766 12.8052 14.8727 12.7665 14.9627 12.7052L14.9607 12.7065C15.142 12.5818 15.298 12.4398 15.4333 12.2792L15.436 12.2758C15.8407 11.8185 16.214 11.3132 16.5393 10.7758L16.5653 10.7292C16.7947 10.3492 17.0427 9.88117 17.2673 9.40051L17.3087 9.30251L17.606 8.70784C17.7093 8.41051 17.9867 8.20117 18.3127 8.20117C18.3253 8.20117 18.338 8.20117 18.3507 8.20184H18.3487H20.1027C20.5764 8.20184 20.7542 8.41984 20.636 8.85584H20.6353Z" fill="white"/>
</g>
<defs>
<clipPath id="clip0_298_2332">
<rect width="26" height="26" fill="white"/>
</clipPath>
</defs>
</svg>
