<svg width="133" height="133" viewBox="0 0 133 133" fill="none" xmlns="http://www.w3.org/2000/svg">
<path d="M72.7344 95.5937L72.7344 49.875C72.7419 43.2635 75.3716 36.9248 80.0467 32.2498C84.7217 27.5747 91.0603 24.945 97.6719 24.9375C98.7742 24.9375 99.8313 25.3754 100.611 26.1548C101.39 26.9343 101.828 27.9914 101.828 29.0937C101.828 30.1961 101.39 31.2532 100.611 32.0327C99.8313 32.8121 98.7742 33.25 97.6719 33.25C93.2642 33.2549 89.0384 35.0081 85.9217 38.1248C82.805 41.2415 81.0518 45.4673 81.0469 49.875L81.0469 54.0312L112.219 54.0312C114.423 54.0338 116.535 54.9104 118.094 56.4687C119.652 58.0271 120.529 60.1399 120.531 62.3438L120.531 95.5938C120.529 97.7976 119.652 99.9104 118.094 101.469C116.535 103.027 114.423 103.904 112.219 103.906L81.0469 103.906C78.843 103.904 76.7302 103.027 75.1718 101.469C73.6135 99.9104 72.7369 97.7976 72.7344 95.5937ZM20.7812 103.906L51.9531 103.906C54.157 103.904 56.2698 103.027 57.8282 101.469C59.3865 99.9104 60.2631 97.7976 60.2656 95.5937L60.2656 62.3437C60.2631 60.1399 59.3865 58.0271 57.8282 56.4687C56.2698 54.9104 54.157 54.0338 51.9531 54.0312L20.7813 54.0312L20.7813 49.875C20.7862 45.4673 22.5394 41.2415 25.6561 38.1248C28.7728 35.0081 32.9985 33.2549 37.4063 33.25C38.5086 33.25 39.5657 32.8121 40.3452 32.0327C41.1246 31.2532 41.5625 30.196 41.5625 29.0937C41.5625 27.9914 41.1246 26.9343 40.3452 26.1548C39.5657 25.3754 38.5086 24.9375 37.4063 24.9375C30.7947 24.945 24.4561 27.5747 19.781 32.2498C15.106 36.9248 12.4762 43.2634 12.4688 49.875L12.4688 95.5937C12.4713 97.7976 13.3479 99.9104 14.9062 101.469C16.4646 103.027 18.5774 103.904 20.7812 103.906Z" fill="#E63312"/>
</svg>
