<svg width="24" height="24" viewBox="0 0 24 24" fill="none" xmlns="http://www.w3.org/2000/svg">
<path fill-rule="evenodd" clip-rule="evenodd" d="M14.75 7.75C14.75 9.26878 13.5188 10.5 12 10.5C10.4812 10.5 9.25 9.26878 9.25 7.75C9.25 6.23122 10.4812 5 12 5C13.5188 5 14.75 6.23122 14.75 7.75Z" stroke="#727272" stroke-width="1.5" stroke-linecap="round" stroke-linejoin="round"/>
<path d="M7.24967 15.7336C7.23738 15.3196 6.89179 14.9939 6.47775 15.0062C6.06372 15.0185 5.73804 15.3641 5.75033 15.7781L7.24967 15.7336ZM9.885 18.9499V18.1999C9.8779 18.1999 9.87081 18.2 9.86372 18.2002L9.885 18.9499ZM14.115 18.9499L14.1363 18.2002C14.1292 18.2 14.1221 18.1999 14.115 18.1999V18.9499ZM18.2497 15.7781C18.262 15.3641 17.9363 15.0185 17.5222 15.0062C17.1082 14.9939 16.7626 15.3196 16.7503 15.7336L18.2497 15.7781ZM16.7503 15.6331C16.7626 16.0472 17.1082 16.3728 17.5222 16.3605C17.9363 16.3483 18.262 16.0027 18.2497 15.5886L16.7503 15.6331ZM14.115 12.4169V13.1669C14.1221 13.1669 14.1292 13.1668 14.1363 13.1666L14.115 12.4169ZM9.885 12.4169L9.86372 13.1666C9.87081 13.1668 9.8779 13.1669 9.885 13.1669V12.4169ZM5.75033 15.5886C5.73804 16.0027 6.06372 16.3483 6.47775 16.3605C6.89179 16.3728 7.23738 16.0472 7.24967 15.6331L5.75033 15.5886ZM5.75033 15.7781C5.8165 18.008 7.67632 19.7629 9.90628 19.6996L9.86372 18.2002C8.4611 18.24 7.29129 17.1362 7.24967 15.7336L5.75033 15.7781ZM9.885 19.6999H14.115V18.1999H9.885V19.6999ZM14.0937 19.6996C16.3237 19.7629 18.1835 18.008 18.2497 15.7781L16.7503 15.7336C16.7087 17.1362 15.5389 18.24 14.1363 18.2002L14.0937 19.6996ZM18.2497 15.5886C18.1835 13.3588 16.3237 11.6039 14.0937 11.6672L14.1363 13.1666C15.5389 13.1268 16.7087 14.2306 16.7503 15.6331L18.2497 15.5886ZM14.115 11.6669H9.885V13.1669H14.115V11.6669ZM9.90628 11.6672C7.67632 11.6039 5.8165 13.3588 5.75033 15.5886L7.24967 15.6331C7.29129 14.2306 8.4611 13.1268 9.86372 13.1666L9.90628 11.6672Z" fill="#727272"/>
</svg>
